# xmcd CD Database Entry
#
# Track frame offsets:
# 150
# 15027
# 29245
# 46755
# 58350
# 71410
# 83325
# 92770
# 109385
# 120522
# 134567
# 146095
#
# Disc length: 2141 seconds
#
# Revision: 1
# Processed by: cddbd v1.4PL0 Copyright (c) Steve Scherf et al.
# Submitted via: RSJCDWriter_freedb_lib_OS/2 1.02
#
DISCID=a2085b0c
DTITLE=Dominators - Rough Ride
DYEAR=1900
DGENRE=
TTITLE0=Regular Backdoor Friend
TTITLE1=Over and Done With
TTITLE2=Heartbreaker
TTITLE3=Drive My Ford
TTITLE4=Half Pint of Whiskey
TTITLE5=I'm Gonna Tell On You
TTITLE6=Lovey Dovey Lovely One
TTITLE7=Rockinitis
TTITLE8=Mr. Highway Man
TTITLE9=Naggin'
TTITLE10=Right Now Baby
TTITLE11=Cat Squirrel
EXTD=p1996 Last Buzz Record Co.
EXTT0=
EXTT1=
EXTT2=
EXTT3=
EXTT4=
EXTT5=
EXTT6=
EXTT7=
EXTT8=
EXTT9=
EXTT10=
EXTT11=
PLAYORDER=
